<svg xmlns="http://www.w3.org/2000/svg" xmlns:xlink="http://www.w3.org/1999/xlink" width="1080" zoomAndPan="magnify" viewBox="0 0 810 809.999993" height="1080" preserveAspectRatio="xMidYMid meet" version="1.0"><defs><filter x="0%" y="0%" width="100%" height="100%" id="0e91b769f8"><feColorMatrix values="0 0 0 0 1 0 0 0 0 1 0 0 0 0 1 0 0 0 1 0" color-interpolation-filters="sRGB"/></filter><mask id="6c0f65a7b6"><g filter="url(#0e91b769f8)"><rect x="-81" width="972" fill="#000000" y="-80.999999" height="971.999992" fill-opacity="0.18"/></g></mask><clipPath id="45530cbf15"><path d="M 1 12 L 517 12 L 517 618 L 1 618 Z M 1 12 " clip-rule="nonzero"/></clipPath><clipPath id="47130faf56"><path d="M 33.257812 -0.882812 L 522.179688 25.816406 L 489.75 619.675781 L 0.828125 592.976562 Z M 33.257812 -0.882812 " clip-rule="nonzero"/></clipPath><clipPath id="185997515c"><path d="M 516.226562 112.722656 C 517.050781 97.601562 505.785156 81.925781 491.1875 77.90625 L 256.535156 13.152344 C 241.9375 9.117188 225.351562 17.3125 219.691406 31.367188 L 3.65625 566.839844 C -2.011719 580.878906 5.726562 593.050781 20.847656 593.878906 L 461.085938 617.917969 C 476.207031 618.746094 489.253906 607.050781 490.078125 591.929688 Z M 516.226562 112.722656 " clip-rule="nonzero"/></clipPath><clipPath id="83d7fa96a4"><path d="M 0 0 L 516 0 L 516 606 L 0 606 Z M 0 0 " clip-rule="nonzero"/></clipPath><clipPath id="2ed1e2a76b"><path d="M 32.257812 -12.882812 L 521.179688 13.816406 L 488.75 607.675781 L -0.171875 580.976562 Z M 32.257812 -12.882812 " clip-rule="nonzero"/></clipPath><clipPath id="9f217a1f63"><path d="M 515.226562 100.722656 C 516.050781 85.601562 504.785156 69.925781 490.1875 65.90625 L 255.535156 1.152344 C 240.9375 -2.882812 224.351562 5.3125 218.691406 19.367188 L 2.65625 554.839844 C -3.011719 568.878906 4.726562 581.050781 19.847656 581.878906 L 460.085938 605.917969 C 475.207031 606.746094 488.253906 595.050781 489.078125 579.929688 Z M 515.226562 100.722656 " clip-rule="nonzero"/></clipPath><clipPath id="a115a2fd12"><rect x="0" width="516" y="0" height="606"/></clipPath><clipPath id="6b881da6ee"><rect x="0" width="521" y="0" height="620"/></clipPath><mask id="ed14964cef"><g filter="url(#0e91b769f8)"><rect x="-81" width="972" fill="#000000" y="-80.999999" height="971.999992" fill-opacity="0.2"/></g></mask><clipPath id="397d14e896"><path d="M 0.207031 0.605469 L 374.839844 0.605469 L 374.839844 692.796875 L 0.207031 692.796875 Z M 0.207031 0.605469 " clip-rule="nonzero"/></clipPath><clipPath id="25e24e98e3"><path d="M 373.484375 59.289062 C 380.484375 27.121094 359.273438 0.808594 326.351562 0.808594 L 60.070312 0.808594 C 27.144531 0.808594 0.207031 27.746094 0.207031 60.667969 L 0.207031 632.933594 C 0.207031 665.859375 23.292969 692.796875 51.53125 692.796875 C 79.769531 692.796875 108.582031 666.484375 115.585938 634.316406 Z M 373.484375 59.289062 " clip-rule="nonzero"/></clipPath><clipPath id="04b1f4165d"><path d="M 0.207031 0.761719 L 374.839844 0.761719 L 374.839844 692.796875 L 0.207031 692.796875 Z M 0.207031 0.761719 " clip-rule="nonzero"/></clipPath><clipPath id="8a6e32fd42"><path d="M 373.484375 59.289062 C 380.484375 27.121094 359.273438 0.808594 326.351562 0.808594 L 60.070312 0.808594 C 27.144531 0.808594 0.207031 27.746094 0.207031 60.667969 L 0.207031 632.933594 C 0.207031 665.859375 23.292969 692.796875 51.53125 692.796875 C 79.769531 692.796875 108.582031 666.484375 115.585938 634.316406 Z M 373.484375 59.289062 " clip-rule="nonzero"/></clipPath><clipPath id="109bd8574a"><rect x="0" width="375" y="0" height="693"/></clipPath><clipPath id="3ea0a795a5"><rect x="0" width="375" y="0" height="693"/></clipPath></defs><g mask="url(#6c0f65a7b6)"><g transform="matrix(1, 0, 0, 1, 235, 150)"><g clip-path="url(#6b881da6ee)"><g clip-path="url(#45530cbf15)"><g clip-path="url(#47130faf56)"><g clip-path="url(#185997515c)"><g transform="matrix(1, 0, 0, 1, 1, 12)"><g clip-path="url(#a115a2fd12)"><g clip-path="url(#83d7fa96a4)"><g clip-path="url(#2ed1e2a76b)"><g clip-path="url(#9f217a1f63)"><path fill="#3c507b" d="M 32.195312 -11.691406 L 519.921875 14.945312 L 487.554688 607.609375 L -0.171875 580.976562 Z M 32.195312 -11.691406 " fill-opacity="1" fill-rule="nonzero"/></g></g></g></g></g></g></g></g></g></g></g><g mask="url(#ed14964cef)"><g transform="matrix(1, 0, 0, 1, 61, 71)"><g clip-path="url(#3ea0a795a5)"><g clip-path="url(#397d14e896)"><g clip-path="url(#25e24e98e3)"><g transform="matrix(1, 0, 0, 1, 0, 0.000000000000042633)"><g clip-path="url(#109bd8574a)"><g clip-path="url(#04b1f4165d)"><g clip-path="url(#8a6e32fd42)"><path fill="#3c507b" d="M 0.207031 692.796875 L 0.207031 0.605469 L 374.839844 0.605469 L 374.839844 692.796875 Z M 0.207031 692.796875 " fill-opacity="1" fill-rule="nonzero"/></g></g></g></g></g></g></g></g></g></svg>