<svg xmlns="http://www.w3.org/2000/svg" xmlns:xlink="http://www.w3.org/1999/xlink" width="1080" zoomAndPan="magnify" viewBox="0 0 810 809.999993" height="1080" preserveAspectRatio="xMidYMid meet" version="1.0"><defs><filter x="0%" y="0%" width="100%" height="100%" id="ffe719500c"><feColorMatrix values="0 0 0 0 1 0 0 0 0 1 0 0 0 0 1 0 0 0 1 0" color-interpolation-filters="sRGB"/></filter><mask id="7f3be19a91"><g filter="url(#ffe719500c)"><rect x="-81" width="972" fill="#000000" y="-80.999999" height="971.999992" fill-opacity="0.18"/></g></mask><clipPath id="e4c81e801f"><path d="M 1 12 L 517 12 L 517 618 L 1 618 Z M 1 12 " clip-rule="nonzero"/></clipPath><clipPath id="3cf3788b78"><path d="M 33.257812 -0.882812 L 522.179688 25.816406 L 489.75 619.675781 L 0.828125 592.976562 Z M 33.257812 -0.882812 " clip-rule="nonzero"/></clipPath><clipPath id="93cff8d233"><path d="M 516.226562 112.722656 C 517.050781 97.601562 505.785156 81.925781 491.1875 77.90625 L 256.535156 13.152344 C 241.9375 9.117188 225.351562 17.3125 219.691406 31.367188 L 3.65625 566.839844 C -2.011719 580.878906 5.726562 593.050781 20.847656 593.878906 L 461.085938 617.917969 C 476.207031 618.746094 489.253906 607.050781 490.078125 591.929688 Z M 516.226562 112.722656 " clip-rule="nonzero"/></clipPath><clipPath id="0fc2101590"><path d="M 0 0 L 516 0 L 516 606 L 0 606 Z M 0 0 " clip-rule="nonzero"/></clipPath><clipPath id="fd9eca1e4c"><path d="M 32.257812 -12.882812 L 521.179688 13.816406 L 488.75 607.675781 L -0.171875 580.976562 Z M 32.257812 -12.882812 " clip-rule="nonzero"/></clipPath><clipPath id="b8e0c681ff"><path d="M 515.226562 100.722656 C 516.050781 85.601562 504.785156 69.925781 490.1875 65.90625 L 255.535156 1.152344 C 240.9375 -2.882812 224.351562 5.3125 218.691406 19.367188 L 2.65625 554.839844 C -3.011719 568.878906 4.726562 581.050781 19.847656 581.878906 L 460.085938 605.917969 C 475.207031 606.746094 488.253906 595.050781 489.078125 579.929688 Z M 515.226562 100.722656 " clip-rule="nonzero"/></clipPath><clipPath id="4147cdddd0"><rect x="0" width="516" y="0" height="606"/></clipPath><clipPath id="fbf4d15e31"><rect x="0" width="521" y="0" height="620"/></clipPath><mask id="4650a27593"><g filter="url(#ffe719500c)"><rect x="-81" width="972" fill="#000000" y="-80.999999" height="971.999992" fill-opacity="0.2"/></g></mask><clipPath id="f1fa9e98ec"><path d="M 0.207031 0.605469 L 374.839844 0.605469 L 374.839844 692.796875 L 0.207031 692.796875 Z M 0.207031 0.605469 " clip-rule="nonzero"/></clipPath><clipPath id="c74ed6dcef"><path d="M 373.484375 59.289062 C 380.484375 27.121094 359.273438 0.808594 326.351562 0.808594 L 60.070312 0.808594 C 27.144531 0.808594 0.207031 27.746094 0.207031 60.667969 L 0.207031 632.933594 C 0.207031 665.859375 23.292969 692.796875 51.53125 692.796875 C 79.769531 692.796875 108.582031 666.484375 115.585938 634.316406 Z M 373.484375 59.289062 " clip-rule="nonzero"/></clipPath><clipPath id="5b73cb86dc"><path d="M 0.207031 0.761719 L 374.839844 0.761719 L 374.839844 692.796875 L 0.207031 692.796875 Z M 0.207031 0.761719 " clip-rule="nonzero"/></clipPath><clipPath id="9be6fc1783"><path d="M 373.484375 59.289062 C 380.484375 27.121094 359.273438 0.808594 326.351562 0.808594 L 60.070312 0.808594 C 27.144531 0.808594 0.207031 27.746094 0.207031 60.667969 L 0.207031 632.933594 C 0.207031 665.859375 23.292969 692.796875 51.53125 692.796875 C 79.769531 692.796875 108.582031 666.484375 115.585938 634.316406 Z M 373.484375 59.289062 " clip-rule="nonzero"/></clipPath><clipPath id="c8a81212a7"><rect x="0" width="375" y="0" height="693"/></clipPath><clipPath id="a7bc4a8e68"><rect x="0" width="375" y="0" height="693"/></clipPath></defs><rect x="-81" width="972" fill="#ffffff" y="-80.999999" height="971.999992" fill-opacity="1"/><rect x="-81" width="972" fill="#ffffff" y="-80.999999" height="971.999992" fill-opacity="1"/><g mask="url(#7f3be19a91)"><g transform="matrix(1, 0, 0, 1, 235, 150)"><g clip-path="url(#fbf4d15e31)"><g clip-path="url(#e4c81e801f)"><g clip-path="url(#3cf3788b78)"><g clip-path="url(#93cff8d233)"><g transform="matrix(1, 0, 0, 1, 1, 12)"><g clip-path="url(#4147cdddd0)"><g clip-path="url(#0fc2101590)"><g clip-path="url(#fd9eca1e4c)"><g clip-path="url(#b8e0c681ff)"><path fill="#d0eaf2" d="M 32.195312 -11.691406 L 519.921875 14.945312 L 487.554688 607.609375 L -0.171875 580.976562 Z M 32.195312 -11.691406 " fill-opacity="1" fill-rule="nonzero"/></g></g></g></g></g></g></g></g></g></g></g><g mask="url(#4650a27593)"><g transform="matrix(1, 0, 0, 1, 61, 71)"><g clip-path="url(#a7bc4a8e68)"><g clip-path="url(#f1fa9e98ec)"><g clip-path="url(#c74ed6dcef)"><g transform="matrix(1, 0, 0, 1, 0, 0.000000000000042633)"><g clip-path="url(#c8a81212a7)"><g clip-path="url(#5b73cb86dc)"><g clip-path="url(#9be6fc1783)"><path fill="#d0eaf2" d="M 0.207031 692.796875 L 0.207031 0.605469 L 374.839844 0.605469 L 374.839844 692.796875 Z M 0.207031 692.796875 " fill-opacity="1" fill-rule="nonzero"/></g></g></g></g></g></g></g></g></g></svg>